<?xml version="1.0" encoding="UTF-8"?><svg xmlns="http://www.w3.org/2000/svg" viewBox="0 0 253.15 89"><defs><style>.d{fill:#d705f2;}.e{fill:#20ef7e;}.f{fill:#0b0bb2;}</style></defs><g id="a"/><g id="b"><g id="c"><g><g><path class="f" d="M102.49,31.76c-1.63,0-2.91-.39-3.83-1.18s-1.39-1.9-1.41-3.33l-.93,4.08h-6.22L97.21,0h6.44l-1.46,6.44-1.42,5.32c.7-1.43,1.68-2.53,2.96-3.3,1.28-.77,2.72-1.16,4.32-1.16,2.37,0,4.09,.84,5.14,2.51,1.05,1.67,1.26,3.91,.62,6.72l-1.36,6.01c-.64,2.83-1.87,5.08-3.68,6.74-1.81,1.66-3.9,2.49-6.27,2.49Zm-1.05-5.58c1.2,0,2.2-.34,3-1.01,.8-.67,1.33-1.62,1.61-2.85l1.27-5.58c.28-1.23,.17-2.18-.32-2.86-.49-.67-1.34-1.01-2.54-1.01s-2.17,.34-2.98,1.01c-.81,.67-1.36,1.63-1.64,2.86l-1.27,5.58c-.28,1.23-.17,2.18,.34,2.85,.51,.67,1.34,1.01,2.52,1.01Z"/><path class="f" d="M115.25,31.33l5.36-23.61h6.22l-1.02,4.51h.13c.66-1.54,1.68-2.75,3.03-3.63,1.36-.87,2.92-1.31,4.7-1.31,2.4,0,4.15,.81,5.24,2.42,1.09,1.62,1.32,3.81,.69,6.59l-.49,2.15h-6.87l.39-1.72c.28-1.23,.17-2.18-.32-2.86-.49-.67-1.35-1.01-2.58-1.01-2.58,0-4.19,1.46-4.86,4.38l-3.2,14.08h-6.44Z"/><path class="f" d="M159.79,7.73l-8.55,14.4c-.41-3.49-1.88-14.4-1.88-14.4h-7l4.06,22.5-5.25,8.83h6.74l18.57-31.33h-6.7Z"/><path class="f" d="M170.39,31.76c-2.37,0-4.11-.64-5.21-1.93-1.1-1.29-1.39-3.03-.89-5.24,.55-2.4,1.82-4.24,3.83-5.52,2.01-1.27,4.61-1.91,7.82-1.91h4.51l.39-1.72c.21-.94,.05-1.67-.49-2.19-.54-.51-1.4-.77-2.57-.77s-2.11,.23-2.88,.69c-.78,.46-1.25,1.07-1.43,1.84h-6.01c.6-2.37,1.95-4.26,4.07-5.64,2.12-1.39,4.68-2.08,7.68-2.08s5.31,.72,6.76,2.17c1.45,1.44,1.88,3.44,1.3,5.99l-3.6,15.88h-6.22l.83-3.65h-.13c-.69,1.29-1.71,2.29-3.04,3-1.34,.71-2.9,1.07-4.71,1.07Zm3.47-4.68c1.26,0,2.37-.33,3.34-.99,.97-.66,1.57-1.53,1.82-2.62l.57-2.49h-4.38c-1.14,0-2.1,.27-2.86,.79-.76,.53-1.25,1.27-1.47,2.21s-.06,1.73,.47,2.27c.53,.54,1.37,.81,2.52,.81Z"/><path class="f" d="M187.95,31.33l5.36-23.61h6.22l-1.02,4.51h.13c.63-1.51,1.59-2.72,2.88-3.6s2.78-1.33,4.47-1.33c2.29,0,3.94,.8,4.97,2.4,1.02,1.6,1.23,3.73,.63,6.39l-3.46,15.24h-6.44l3.31-14.59c.28-1.23,.17-2.18-.32-2.86-.49-.67-1.31-1.01-2.45-1.01s-2.12,.34-2.91,1.01c-.8,.67-1.33,1.63-1.61,2.86l-3.31,14.59h-6.44Z"/></g><g><path class="d" d="M110.31,87.99c-.84,0-1.51-.21-2.01-.62-.5-.42-.71-1-.65-1.76l.22-2.35c.05-.51-.02-.87-.22-1.1-.19-.22-.6-.34-1.22-.34h-1.65v-1.15h1.65c.62,0,1.03-.11,1.22-.34,.19-.22,.26-.59,.22-1.1l-.22-2.35c-.07-.75,.15-1.34,.65-1.76,.5-.42,1.17-.62,2.01-.62h.65v1.15h-.65c-.45,0-.8,.1-1.05,.31-.25,.21-.35,.51-.32,.92l.21,2.35c.05,.54-.06,.99-.32,1.33-.26,.34-.63,.55-1.11,.62,.48,.09,.85,.32,1.11,.69,.26,.37,.37,.83,.32,1.38l-.21,2.35c-.04,.41,.07,.72,.32,.92,.25,.21,.6,.31,1.05,.31h.65v1.15h-.65Z"/><path class="d" d="M113.63,86.42v-10.46h2.71c.68,0,1.26,.13,1.76,.39,.49,.26,.87,.62,1.15,1.09,.27,.47,.41,1.02,.41,1.66v4.17c0,.64-.14,1.2-.41,1.67-.27,.47-.65,.84-1.15,1.1-.49,.26-1.08,.39-1.76,.39h-2.71Zm1.29-1.15h1.42c.63,0,1.12-.18,1.48-.53,.36-.35,.54-.85,.54-1.48v-4.17c0-.62-.18-1.11-.54-1.46-.36-.35-.85-.53-1.48-.53h-1.42v8.17Z"/><path class="d" d="M125.21,86.56c-.62,0-1.16-.12-1.63-.37-.46-.25-.82-.6-1.07-1.05-.25-.45-.38-.98-.38-1.58v-2.15c0-.61,.13-1.14,.38-1.59,.25-.45,.61-.8,1.07-1.05,.46-.25,1.01-.37,1.63-.37s1.16,.12,1.63,.37c.46,.25,.82,.6,1.08,1.05,.25,.45,.38,.98,.38,1.59v1.39h-4.9v.76c0,.62,.16,1.1,.47,1.43s.76,.49,1.35,.49c.5,0,.9-.09,1.2-.26,.31-.18,.49-.44,.56-.8h1.29c-.09,.66-.41,1.18-.97,1.57-.56,.39-1.25,.58-2.09,.58Zm-1.82-4.74h3.64v-.42c0-.62-.16-1.1-.47-1.43-.31-.34-.76-.5-1.35-.5s-1.03,.17-1.35,.5c-.32,.33-.47,.81-.47,1.43v.42Z"/><path class="d" d="M132.97,86.42l-2.74-7.88h1.33l1.83,5.3c.11,.31,.2,.62,.27,.91,.08,.29,.13,.52,.17,.68,.05-.16,.1-.39,.17-.68,.07-.29,.15-.6,.26-.91l1.78-5.3h1.35l-2.74,7.88h-1.69Z"/><path class="d" d="M142.41,86.56c-.62,0-1.16-.12-1.63-.37-.46-.25-.82-.6-1.07-1.05-.25-.45-.38-.98-.38-1.58v-2.15c0-.61,.13-1.14,.38-1.59,.25-.45,.61-.8,1.07-1.05,.46-.25,1.01-.37,1.63-.37s1.16,.12,1.63,.37c.46,.25,.82,.6,1.08,1.05,.25,.45,.38,.98,.38,1.59v1.39h-4.9v.76c0,.62,.16,1.1,.47,1.43s.76,.49,1.35,.49c.5,0,.9-.09,1.2-.26,.31-.18,.49-.44,.56-.8h1.29c-.09,.66-.41,1.18-.97,1.57-.56,.39-1.25,.58-2.09,.58Zm-1.82-4.74h3.64v-.42c0-.62-.16-1.1-.47-1.43-.31-.34-.76-.5-1.35-.5s-1.03,.17-1.35,.5c-.32,.33-.47,.81-.47,1.43v.42Z"/><path class="d" d="M152.16,86.42c-.7,0-1.25-.2-1.67-.61-.42-.41-.62-.94-.62-1.61v-7.07h-2.72v-1.18h4.01v8.24c0,.33,.09,.58,.27,.77,.18,.19,.43,.28,.73,.28h2.44v1.17h-2.44Z"/><path class="d" d="M159.61,86.53c-.96,0-1.71-.27-2.26-.81-.55-.54-.82-1.27-.82-2.2v-2.09c0-.94,.27-1.67,.82-2.21,.55-.53,1.3-.8,2.26-.8s1.71,.27,2.26,.8c.55,.54,.82,1.27,.82,2.19v2.11c0,.93-.27,1.66-.82,2.2-.55,.54-1.3,.81-2.26,.81Zm0-1.15c.56,0,1-.16,1.32-.47s.47-.78,.47-1.39v-2.09c0-.61-.16-1.07-.47-1.39s-.75-.47-1.32-.47-.99,.16-1.31,.47-.48,.78-.48,1.39v2.09c0,.61,.16,1.07,.48,1.39s.76,.47,1.31,.47Z"/><path class="d" d="M165.24,89v-10.46h1.29v1.5h.01c.07-.52,.29-.92,.68-1.21,.39-.29,.88-.44,1.47-.44,.79,0,1.43,.26,1.9,.78,.47,.52,.71,1.24,.71,2.14v2.31c0,.91-.24,1.62-.71,2.15-.47,.53-1.11,.79-1.9,.79-.59,0-1.08-.15-1.46-.44-.38-.3-.61-.7-.69-1.2h-.04l.03,1.79v2.29h-1.29Zm3.02-3.55c.54,0,.97-.16,1.28-.49s.47-.79,.47-1.4v-2.15c0-.61-.16-1.08-.47-1.4s-.74-.49-1.28-.49-.95,.17-1.26,.5c-.32,.33-.47,.8-.47,1.39v2.15c0,.59,.16,1.06,.47,1.39,.32,.33,.74,.5,1.26,.5Z"/><path class="d" d="M176.81,86.56c-.62,0-1.16-.12-1.63-.37-.46-.25-.82-.6-1.07-1.05-.25-.45-.38-.98-.38-1.58v-2.15c0-.61,.13-1.14,.38-1.59,.25-.45,.61-.8,1.07-1.05,.46-.25,1.01-.37,1.63-.37s1.16,.12,1.63,.37c.46,.25,.82,.6,1.08,1.05,.25,.45,.38,.98,.38,1.59v1.39h-4.9v.76c0,.62,.16,1.1,.47,1.43s.76,.49,1.35,.49c.5,0,.9-.09,1.2-.26,.31-.18,.49-.44,.56-.8h1.29c-.09,.66-.41,1.18-.97,1.57-.56,.39-1.25,.58-2.09,.58Zm-1.82-4.74h3.64v-.42c0-.62-.16-1.1-.47-1.43-.31-.34-.76-.5-1.35-.5s-1.03,.17-1.35,.5c-.32,.33-.47,.81-.47,1.43v.42Z"/><path class="d" d="M182.67,86.42v-7.88h1.29v1.5h.01c.07-.53,.28-.93,.64-1.22,.36-.29,.85-.43,1.45-.43,.82,0,1.48,.26,1.96,.78s.73,1.23,.73,2.11v.55h-1.29v-.43c0-.6-.15-1.07-.46-1.4-.31-.33-.75-.49-1.33-.49-1.15,0-1.72,.63-1.72,1.89v5.02h-1.29Z"/><path class="d" d="M191.07,87.99v-1.15h.64c.45,0,.8-.1,1.05-.31,.25-.21,.35-.51,.32-.92l-.22-2.35c-.05-.55,.06-1.01,.32-1.38,.26-.38,.63-.61,1.11-.7-.48-.08-.85-.28-1.11-.62-.26-.33-.37-.77-.32-1.32l.22-2.35c.04-.41-.07-.72-.32-.92-.25-.21-.6-.31-1.05-.31h-.64v-1.15h.64c.85,0,1.52,.21,2.02,.62,.5,.42,.71,1,.63,1.76l-.22,2.35c-.04,.51,.04,.87,.22,1.1,.19,.22,.59,.34,1.21,.34h1.65v1.15h-1.65c-.61,0-1.01,.11-1.2,.34-.19,.22-.27,.59-.23,1.1l.22,2.35c.08,.75-.13,1.34-.63,1.76-.5,.42-1.17,.62-2.02,.62h-.64Z"/></g><g><path class="e" d="M83.98,74.37l1.17-5.15h6.65c1.2,0,2.19-.3,2.97-.9,.78-.6,1.29-1.43,1.53-2.49l.2-.9,1.11-4.51h-.13c-.61,1.57-1.56,2.79-2.82,3.65-1.27,.86-2.75,1.29-4.43,1.29-2.38,0-4.09-.83-5.14-2.49-1.05-1.66-1.26-3.91-.62-6.74l.97-4.29c.64-2.8,1.86-5.04,3.67-6.72,1.81-1.67,3.9-2.51,6.28-2.51,1.69,0,2.97,.43,3.85,1.29s1.27,2.07,1.17,3.65h.13l.81-4.51h6.44l-5.22,23c-.58,2.58-1.92,4.61-4.02,6.1-2.1,1.49-4.66,2.23-7.7,2.23h-6.87Zm9.84-14.59c1.17,0,2.16-.34,2.98-1.01,.81-.67,1.36-1.62,1.63-2.86l.88-3.86c.28-1.23,.17-2.18-.34-2.86-.51-.67-1.35-1.01-2.52-1.01s-2.2,.34-3,1.01c-.8,.67-1.33,1.63-1.61,2.86l-.88,3.86c-.28,1.23-.17,2.18,.32,2.86,.49,.67,1.34,1.01,2.54,1.01Z"/><path class="e" d="M116.75,67.07c-3.18,0-5.46-.86-6.86-2.58-1.4-1.72-1.76-4.06-1.08-7.04l3.27-14.42h6.44l-3.26,14.38c-.62,2.72,.3,4.08,2.77,4.08,1.17,0,2.16-.35,2.96-1.05,.8-.7,1.35-1.71,1.65-3.03l3.26-14.38h6.44l-3.27,14.42c-.68,3-2.12,5.36-4.31,7.06-2.19,1.7-4.86,2.55-8,2.55Z"/><path class="e" d="M141.26,67.07c-2.09,0-3.82-.39-5.2-1.18-1.38-.79-2.33-1.89-2.86-3.3-.52-1.42-.57-3.07-.14-4.96l1.27-5.58c.43-1.89,1.23-3.54,2.39-4.96,1.16-1.41,2.62-2.52,4.36-3.3,1.74-.79,3.65-1.18,5.74-1.18s3.81,.39,5.16,1.18c1.35,.79,2.29,1.89,2.81,3.3,.52,1.42,.57,3.07,.14,4.96l-.97,4.29h-14.46l-.29,1.29c-.68,3,.41,4.51,3.27,4.51,2.03,0,3.39-.64,4.09-1.93h6.31c-.98,2.06-2.53,3.72-4.63,4.98-2.1,1.26-4.43,1.89-6.97,1.89Zm-.8-15.02l-.15,.64,8.35-.09,.15-.64c.68-3-.35-4.51-3.1-4.51-1.4,0-2.54,.4-3.43,1.2-.88,.8-1.49,1.93-1.82,3.39Z"/><path class="e" d="M161.79,66.64l-2.67-23.61h6.65l1.28,13.26c.08,.8,.11,1.67,.09,2.62-.01,.94-.03,1.7-.04,2.27,.27-.57,.62-1.33,1.03-2.27,.41-.94,.82-1.8,1.23-2.57l7.23-13.31h6.57l-13.3,23.61h-8.07Z"/><path class="e" d="M187.1,67.07c-2.37,0-4.11-.64-5.21-1.93-1.1-1.29-1.39-3.03-.89-5.24,.55-2.4,1.82-4.24,3.83-5.52,2.01-1.27,4.61-1.91,7.82-1.91h4.51l.39-1.72c.21-.94,.05-1.67-.49-2.19-.54-.51-1.4-.77-2.57-.77s-2.11,.23-2.88,.69c-.78,.46-1.25,1.07-1.43,1.84h-6.01c.6-2.37,1.95-4.26,4.07-5.64,2.12-1.39,4.68-2.08,7.68-2.08s5.31,.72,6.76,2.17c1.45,1.44,1.88,3.44,1.3,5.99l-3.6,15.88h-6.22l.83-3.65h-.13c-.69,1.29-1.71,2.29-3.04,3s-2.9,1.07-4.71,1.07Zm3.47-4.68c1.26,0,2.37-.33,3.34-.99,.97-.66,1.57-1.53,1.82-2.62l.57-2.49h-4.38c-1.14,0-2.1,.27-2.86,.79-.76,.53-1.25,1.27-1.47,2.21s-.06,1.73,.47,2.27c.53,.54,1.37,.81,2.52,.81Z"/><path class="e" d="M205.35,66.64l5.36-23.61h6.22l-1.02,4.51h.13c.66-1.54,1.68-2.75,3.03-3.63,1.36-.87,2.92-1.31,4.7-1.31,2.4,0,4.15,.81,5.24,2.42,1.09,1.62,1.32,3.81,.69,6.59l-.49,2.15h-6.87l.39-1.72c.28-1.23,.17-2.18-.32-2.86-.49-.67-1.35-1.01-2.58-1.01-2.58,0-4.19,1.46-4.86,4.38l-3.2,14.08h-6.44Z"/><path class="e" d="M236.02,67.07c-2.37,0-4.11-.64-5.21-1.93-1.1-1.29-1.39-3.03-.89-5.24,.55-2.4,1.82-4.24,3.83-5.52,2.01-1.27,4.61-1.91,7.82-1.91h4.51l.39-1.72c.21-.94,.05-1.67-.49-2.19-.54-.51-1.4-.77-2.57-.77s-2.11,.23-2.88,.69c-.78,.46-1.25,1.07-1.43,1.84h-6.01c.6-2.37,1.95-4.26,4.07-5.64,2.12-1.39,4.68-2.08,7.68-2.08s5.31,.72,6.76,2.17c1.45,1.44,1.88,3.44,1.3,5.99l-3.6,15.88h-6.22l.83-3.65h-.13c-.69,1.29-1.71,2.29-3.04,3-1.34,.71-2.9,1.07-4.71,1.07Zm3.47-4.68c1.26,0,2.37-.33,3.34-.99,.97-.66,1.57-1.53,1.82-2.62l.57-2.49h-4.38c-1.14,0-2.1,.27-2.86,.79-.76,.53-1.25,1.27-1.47,2.21s-.06,1.73,.47,2.27c.53,.54,1.37,.81,2.52,.81Z"/></g><g><polygon class="f" points="20.27 89 0 89 20.85 0 41.12 0 20.27 89"/><polygon class="e" points="59.7 49.69 59.7 49.69 50.13 37.09 49.2 37.09 29.87 37.09 30.12 37.42 49.57 63.03 49.57 63.03 29.87 89 50.13 89 59.7 76.4 59.7 76.4 59.78 76.29 64.17 70.51 64.5 70.09 69.79 63.12 69.84 63.03 59.7 49.69"/></g></g></g></g></svg>